# xmcd
#
# Track frame offsets: 
#        150
#        11555
#        24238
#        34429
#        48326
#        59893
#        70493
#        86441
#        97207
#        110319
#        123846
#        136116
#        146274
#        156990
#        169345
#        182125
#        197346
#        209152
#
# Disc length: 2962 seconds
#
# Revision: 0
# Processed by: cddbd v1.5.2PL0 Copyright (c) Steve Scherf et al.
# Submitted via: ExactAudioCopyFreeDBPlugin 1.0
#
DISCID=060b9012
DTITLE=Howlin' Wolf - Blues From Hell - CD2
DYEAR=2015
DGENRE=Blues
TTITLE0=Howlin' For My Baby
TTITLE1=Forty Four
TTITLE2=Shake For Me
TTITLE3=You Can't Be Beat
TTITLE4=I Have A Little Girl
TTITLE5=Who's Been Talkin'
TTITLE6=Change My Way
TTITLE7=Wang-Dang Doodle
TTITLE8=Twisting And Turning
TTITLE9=Backslide Boogie
TTITLE10=How Many More Years
TTITLE11=I've Been Abused
TTITLE12=Keep What You Got
TTITLE13=Nature
TTITLE14=No Place To Go (You Gonna Wreck My Life)
TTITLE15=Going Down Slow
TTITLE16=Don't Mess With My Baby
TTITLE17=Moanin' For My Baby
EXTD=
EXTT0=
EXTT1=
EXTT2=
EXTT3=
EXTT4=
EXTT5=
EXTT6=
EXTT7=
EXTT8=
EXTT9=
EXTT10=
EXTT11=
EXTT12=
EXTT13=
EXTT14=
EXTT15=
EXTT16=
EXTT17=
PLAYORDER=
